solid ASCII
  facet normal 0.000000e+00 0.000000e+00 1.000000e+00
    outer loop
      vertex   2.000000e+00 0.000000e+00 9.018704e+00
      vertex   -2.000000e+00 0.000000e+00 9.018704e+00
      vertex   2.000000e+00 -1.000000e+00 9.018704e+00
    endloop
  endfacet
  facet normal 0.000000e+00 0.000000e+00 1.000000e+00
    outer loop
      vertex   2.000000e+00 -1.000000e+00 9.018704e+00
      vertex   -2.000000e+00 0.000000e+00 9.018704e+00
      vertex   -2.000000e+00 -1.000000e+00 9.018704e+00
    endloop
  endfacet
  facet normal -9.959071e-01 -0.000000e+00 -9.038332e-02
    outer loop
      vertex   -2.000000e+00 0.000000e+00 9.018704e+00
      vertex   -1.000000e+00 0.000000e+00 -2.000000e+00
      vertex   -2.000000e+00 -1.000000e+00 9.018704e+00
    endloop
  endfacet
  facet normal -9.959071e-01 0.000000e+00 -9.038332e-02
    outer loop
      vertex   -2.000000e+00 -1.000000e+00 9.018704e+00
      vertex   -1.000000e+00 0.000000e+00 -2.000000e+00
      vertex   -1.000000e+00 -1.000000e+00 -2.000000e+00
    endloop
  endfacet
  facet normal 0.000000e+00 0.000000e+00 -1.000000e+00
    outer loop
      vertex   -1.000000e+00 0.000000e+00 -2.000000e+00
      vertex   1.000000e+00 0.000000e+00 -2.000000e+00
      vertex   -1.000000e+00 -1.000000e+00 -2.000000e+00
    endloop
  endfacet
  facet normal 0.000000e+00 0.000000e+00 -1.000000e+00
    outer loop
      vertex   -1.000000e+00 -1.000000e+00 -2.000000e+00
      vertex   1.000000e+00 0.000000e+00 -2.000000e+00
      vertex   1.000000e+00 -1.000000e+00 -2.000000e+00
    endloop
  endfacet
  facet normal 9.959071e-01 0.000000e+00 -9.038332e-02
    outer loop
      vertex   1.000000e+00 0.000000e+00 -2.000000e+00
      vertex   2.000000e+00 0.000000e+00 9.018704e+00
      vertex   1.000000e+00 -1.000000e+00 -2.000000e+00
    endloop
  endfacet
  facet normal 9.959071e-01 0.000000e+00 -9.038332e-02
    outer loop
      vertex   1.000000e+00 -1.000000e+00 -2.000000e+00
      vertex   2.000000e+00 0.000000e+00 9.018704e+00
      vertex   2.000000e+00 -1.000000e+00 9.018704e+00
    endloop
  endfacet
  facet normal -9.957342e-01 0.000000e+00 9.226836e-02
    outer loop
      vertex   -1.474460e+00 -1.000000e+00 -4.724376e+00
      vertex   -1.474460e+00 0.000000e+00 -4.724376e+00
      vertex   -1.500000e+00 -1.000000e+00 -5.000000e+00
    endloop
  endfacet
  facet normal -9.957342e-01 0.000000e+00 9.226836e-02
    outer loop
      vertex   -1.500000e+00 -1.000000e+00 -5.000000e+00
      vertex   -1.474460e+00 0.000000e+00 -4.724376e+00
      vertex   -1.500000e+00 0.000000e+00 -5.000000e+00
    endloop
  endfacet
  facet normal -9.957342e-01 0.000000e+00 -9.226836e-02
    outer loop
      vertex   -1.500000e+00 -1.000000e+00 -5.000000e+00
      vertex   -1.500000e+00 0.000000e+00 -5.000000e+00
      vertex   -1.474460e+00 -1.000000e+00 -5.275624e+00
    endloop
  endfacet
  facet normal -9.957342e-01 0.000000e+00 -9.226836e-02
    outer loop
      vertex   -1.474460e+00 -1.000000e+00 -5.275624e+00
      vertex   -1.500000e+00 0.000000e+00 -5.000000e+00
      vertex   -1.474460e+00 0.000000e+00 -5.275624e+00
    endloop
  endfacet
  facet normal -9.618256e-01 0.000000e+00 -2.736630e-01
    outer loop
      vertex   -1.474460e+00 -1.000000e+00 -5.275624e+00
      vertex   -1.474460e+00 0.000000e+00 -5.275624e+00
      vertex   -1.398708e+00 -1.000000e+00 -5.541863e+00
    endloop
  endfacet
  facet normal -9.618256e-01 0.000000e+00 -2.736630e-01
    outer loop
      vertex   -1.398708e+00 -1.000000e+00 -5.541863e+00
      vertex   -1.474460e+00 0.000000e+00 -5.275624e+00
      vertex   -1.398708e+00 0.000000e+00 -5.541863e+00
    endloop
  endfacet
  facet normal -8.951633e-01 0.000000e+00 -4.457384e-01
    outer loop
      vertex   -1.398708e+00 -1.000000e+00 -5.541863e+00
      vertex   -1.398708e+00 0.000000e+00 -5.541863e+00
      vertex   -1.275326e+00 -1.000000e+00 -5.789648e+00
    endloop
  endfacet
  facet normal -8.951633e-01 0.000000e+00 -4.457384e-01
    outer loop
      vertex   -1.275326e+00 -1.000000e+00 -5.789648e+00
      vertex   -1.398708e+00 0.000000e+00 -5.541863e+00
      vertex   -1.275326e+00 0.000000e+00 -5.789648e+00
    endloop
  endfacet
  facet normal -7.980172e-01 0.000000e+00 -6.026346e-01
    outer loop
      vertex   -1.275326e+00 -1.000000e+00 -5.789648e+00
      vertex   -1.275326e+00 0.000000e+00 -5.789648e+00
      vertex   -1.108513e+00 -1.000000e+00 -6.010544e+00
    endloop
  endfacet
  facet normal -7.980172e-01 0.000000e+00 -6.026346e-01
    outer loop
      vertex   -1.108513e+00 -1.000000e+00 -6.010544e+00
      vertex   -1.275326e+00 0.000000e+00 -5.789648e+00
      vertex   -1.108513e+00 0.000000e+00 -6.010544e+00
    endloop
  endfacet
  facet normal -6.736956e-01 0.000000e+00 -7.390089e-01
    outer loop
      vertex   -1.108513e+00 -1.000000e+00 -6.010544e+00
      vertex   -1.108513e+00 0.000000e+00 -6.010544e+00
      vertex   -9.039520e-01 -1.000000e+00 -6.197026e+00
    endloop
  endfacet
  facet normal -6.736956e-01 0.000000e+00 -7.390089e-01
    outer loop
      vertex   -9.039520e-01 -1.000000e+00 -6.197026e+00
      vertex   -1.108513e+00 0.000000e+00 -6.010544e+00
      vertex   -9.039520e-01 0.000000e+00 -6.197026e+00
    endloop
  endfacet
  facet normal -5.264322e-01 0.000000e+00 -8.502171e-01
    outer loop
      vertex   -9.039520e-01 -1.000000e+00 -6.197026e+00
      vertex   -9.039520e-01 0.000000e+00 -6.197026e+00
      vertex   -6.686075e-01 -1.000000e+00 -6.342745e+00
    endloop
  endfacet
  facet normal -5.264322e-01 0.000000e+00 -8.502171e-01
    outer loop
      vertex   -6.686075e-01 -1.000000e+00 -6.342745e+00
      vertex   -9.039520e-01 0.000000e+00 -6.197026e+00
      vertex   -6.686075e-01 0.000000e+00 -6.342745e+00
    endloop
  endfacet
  facet normal -3.612417e-01 0.000000e+00 -9.324722e-01
    outer loop
      vertex   -6.686075e-01 -1.000000e+00 -6.342745e+00
      vertex   -6.686075e-01 0.000000e+00 -6.342745e+00
      vertex   -4.104945e-01 -1.000000e+00 -6.442739e+00
    endloop
  endfacet
  facet normal -3.612417e-01 0.000000e+00 -9.324722e-01
    outer loop
      vertex   -4.104945e-01 -1.000000e+00 -6.442739e+00
      vertex   -6.686075e-01 0.000000e+00 -6.342745e+00
      vertex   -4.104945e-01 0.000000e+00 -6.442739e+00
    endloop
  endfacet
  facet normal -1.837495e-01 0.000000e+00 -9.829731e-01
    outer loop
      vertex   -4.104945e-01 -1.000000e+00 -6.442739e+00
      vertex   -4.104945e-01 0.000000e+00 -6.442739e+00
      vertex   -1.384025e-01 -1.000000e+00 -6.493601e+00
    endloop
  endfacet
  facet normal -1.837495e-01 0.000000e+00 -9.829731e-01
    outer loop
      vertex   -1.384025e-01 -1.000000e+00 -6.493601e+00
      vertex   -4.104945e-01 0.000000e+00 -6.442739e+00
      vertex   -1.384025e-01 0.000000e+00 -6.493601e+00
    endloop
  endfacet
  facet normal 0.000000e+00 0.000000e+00 -1.000000e+00
    outer loop
      vertex   -1.384025e-01 -1.000000e+00 -6.493601e+00
      vertex   -1.384025e-01 0.000000e+00 -6.493601e+00
      vertex   1.384025e-01 -1.000000e+00 -6.493601e+00
    endloop
  endfacet
  facet normal 0.000000e+00 0.000000e+00 -1.000000e+00
    outer loop
      vertex   1.384025e-01 -1.000000e+00 -6.493601e+00
      vertex   -1.384025e-01 0.000000e+00 -6.493601e+00
      vertex   1.384025e-01 0.000000e+00 -6.493601e+00
    endloop
  endfacet
  facet normal 1.837495e-01 0.000000e+00 -9.829731e-01
    outer loop
      vertex   1.384025e-01 -1.000000e+00 -6.493601e+00
      vertex   1.384025e-01 0.000000e+00 -6.493601e+00
      vertex   4.104945e-01 -1.000000e+00 -6.442739e+00
    endloop
  endfacet
  facet normal 1.837495e-01 0.000000e+00 -9.829731e-01
    outer loop
      vertex   4.104945e-01 -1.000000e+00 -6.442739e+00
      vertex   1.384025e-01 0.000000e+00 -6.493601e+00
      vertex   4.104945e-01 0.000000e+00 -6.442739e+00
    endloop
  endfacet
  facet normal 3.612417e-01 0.000000e+00 -9.324722e-01
    outer loop
      vertex   4.104945e-01 -1.000000e+00 -6.442739e+00
      vertex   4.104945e-01 0.000000e+00 -6.442739e+00
      vertex   6.686075e-01 -1.000000e+00 -6.342745e+00
    endloop
  endfacet
  facet normal 3.612417e-01 0.000000e+00 -9.324722e-01
    outer loop
      vertex   6.686075e-01 -1.000000e+00 -6.342745e+00
      vertex   4.104945e-01 0.000000e+00 -6.442739e+00
      vertex   6.686075e-01 0.000000e+00 -6.342745e+00
    endloop
  endfacet
  facet normal 5.264322e-01 0.000000e+00 -8.502171e-01
    outer loop
      vertex   6.686075e-01 -1.000000e+00 -6.342745e+00
      vertex   6.686075e-01 0.000000e+00 -6.342745e+00
      vertex   9.039520e-01 -1.000000e+00 -6.197026e+00
    endloop
  endfacet
  facet normal 5.264322e-01 0.000000e+00 -8.502171e-01
    outer loop
      vertex   9.039520e-01 -1.000000e+00 -6.197026e+00
      vertex   6.686075e-01 0.000000e+00 -6.342745e+00
      vertex   9.039520e-01 0.000000e+00 -6.197026e+00
    endloop
  endfacet
  facet normal 6.736956e-01 0.000000e+00 -7.390089e-01
    outer loop
      vertex   9.039520e-01 -1.000000e+00 -6.197026e+00
      vertex   9.039520e-01 0.000000e+00 -6.197026e+00
      vertex   1.108513e+00 -1.000000e+00 -6.010544e+00
    endloop
  endfacet
  facet normal 6.736956e-01 0.000000e+00 -7.390089e-01
    outer loop
      vertex   1.108513e+00 -1.000000e+00 -6.010544e+00
      vertex   9.039520e-01 0.000000e+00 -6.197026e+00
      vertex   1.108513e+00 0.000000e+00 -6.010544e+00
    endloop
  endfacet
  facet normal 7.980172e-01 0.000000e+00 -6.026346e-01
    outer loop
      vertex   1.108513e+00 -1.000000e+00 -6.010544e+00
      vertex   1.108513e+00 0.000000e+00 -6.010544e+00
      vertex   1.275326e+00 -1.000000e+00 -5.789648e+00
    endloop
  endfacet
  facet normal 7.980172e-01 0.000000e+00 -6.026346e-01
    outer loop
      vertex   1.275326e+00 -1.000000e+00 -5.789648e+00
      vertex   1.108513e+00 0.000000e+00 -6.010544e+00
      vertex   1.275326e+00 0.000000e+00 -5.789648e+00
    endloop
  endfacet
  facet normal 8.951633e-01 0.000000e+00 -4.457384e-01
    outer loop
      vertex   1.275326e+00 -1.000000e+00 -5.789648e+00
      vertex   1.275326e+00 0.000000e+00 -5.789648e+00
      vertex   1.398708e+00 -1.000000e+00 -5.541863e+00
    endloop
  endfacet
  facet normal 8.951633e-01 0.000000e+00 -4.457384e-01
    outer loop
      vertex   1.398708e+00 -1.000000e+00 -5.541863e+00
      vertex   1.275326e+00 0.000000e+00 -5.789648e+00
      vertex   1.398708e+00 0.000000e+00 -5.541863e+00
    endloop
  endfacet
  facet normal 9.618256e-01 0.000000e+00 -2.736630e-01
    outer loop
      vertex   1.398708e+00 -1.000000e+00 -5.541863e+00
      vertex   1.398708e+00 0.000000e+00 -5.541863e+00
      vertex   1.474460e+00 -1.000000e+00 -5.275624e+00
    endloop
  endfacet
  facet normal 9.618256e-01 0.000000e+00 -2.736630e-01
    outer loop
      vertex   1.474460e+00 -1.000000e+00 -5.275624e+00
      vertex   1.398708e+00 0.000000e+00 -5.541863e+00
      vertex   1.474460e+00 0.000000e+00 -5.275624e+00
    endloop
  endfacet
  facet normal 9.957342e-01 0.000000e+00 -9.226836e-02
    outer loop
      vertex   1.474460e+00 -1.000000e+00 -5.275624e+00
      vertex   1.474460e+00 0.000000e+00 -5.275624e+00
      vertex   1.500000e+00 -1.000000e+00 -5.000000e+00
    endloop
  endfacet
  facet normal 9.957342e-01 0.000000e+00 -9.226836e-02
    outer loop
      vertex   1.500000e+00 -1.000000e+00 -5.000000e+00
      vertex   1.474460e+00 0.000000e+00 -5.275624e+00
      vertex   1.500000e+00 0.000000e+00 -5.000000e+00
    endloop
  endfacet
  facet normal 9.957342e-01 -0.000000e+00 9.226836e-02
    outer loop
      vertex   1.500000e+00 -1.000000e+00 -5.000000e+00
      vertex   1.500000e+00 0.000000e+00 -5.000000e+00
      vertex   1.474460e+00 -1.000000e+00 -4.724376e+00
    endloop
  endfacet
  facet normal 9.957342e-01 -0.000000e+00 9.226836e-02
    outer loop
      vertex   1.474460e+00 -1.000000e+00 -4.724376e+00
      vertex   1.500000e+00 0.000000e+00 -5.000000e+00
      vertex   1.474460e+00 0.000000e+00 -4.724376e+00
    endloop
  endfacet
  facet normal 9.618256e-01 -0.000000e+00 2.736630e-01
    outer loop
      vertex   1.474460e+00 -1.000000e+00 -4.724376e+00
      vertex   1.474460e+00 0.000000e+00 -4.724376e+00
      vertex   1.398708e+00 -1.000000e+00 -4.458138e+00
    endloop
  endfacet
  facet normal 9.618256e-01 -0.000000e+00 2.736630e-01
    outer loop
      vertex   1.398708e+00 -1.000000e+00 -4.458138e+00
      vertex   1.474460e+00 0.000000e+00 -4.724376e+00
      vertex   1.398708e+00 0.000000e+00 -4.458138e+00
    endloop
  endfacet
  facet normal 8.951633e-01 -0.000000e+00 4.457384e-01
    outer loop
      vertex   1.398708e+00 -1.000000e+00 -4.458138e+00
      vertex   1.398708e+00 0.000000e+00 -4.458138e+00
      vertex   1.275326e+00 -1.000000e+00 -4.210352e+00
    endloop
  endfacet
  facet normal 8.951633e-01 -0.000000e+00 4.457384e-01
    outer loop
      vertex   1.275326e+00 -1.000000e+00 -4.210352e+00
      vertex   1.398708e+00 0.000000e+00 -4.458138e+00
      vertex   1.275326e+00 0.000000e+00 -4.210352e+00
    endloop
  endfacet
  facet normal 7.980172e-01 -0.000000e+00 6.026346e-01
    outer loop
      vertex   1.275326e+00 -1.000000e+00 -4.210352e+00
      vertex   1.275326e+00 0.000000e+00 -4.210352e+00
      vertex   1.108513e+00 -1.000000e+00 -3.989457e+00
    endloop
  endfacet
  facet normal 7.980172e-01 -0.000000e+00 6.026346e-01
    outer loop
      vertex   1.108513e+00 -1.000000e+00 -3.989457e+00
      vertex   1.275326e+00 0.000000e+00 -4.210352e+00
      vertex   1.108513e+00 0.000000e+00 -3.989457e+00
    endloop
  endfacet
  facet normal 6.736956e-01 -0.000000e+00 7.390089e-01
    outer loop
      vertex   1.108513e+00 -1.000000e+00 -3.989457e+00
      vertex   1.108513e+00 0.000000e+00 -3.989457e+00
      vertex   9.039520e-01 -1.000000e+00 -3.802974e+00
    endloop
  endfacet
  facet normal 6.736956e-01 -0.000000e+00 7.390089e-01
    outer loop
      vertex   9.039520e-01 -1.000000e+00 -3.802974e+00
      vertex   1.108513e+00 0.000000e+00 -3.989457e+00
      vertex   9.039520e-01 0.000000e+00 -3.802974e+00
    endloop
  endfacet
  facet normal 5.264322e-01 -0.000000e+00 8.502171e-01
    outer loop
      vertex   9.039520e-01 -1.000000e+00 -3.802974e+00
      vertex   9.039520e-01 0.000000e+00 -3.802974e+00
      vertex   6.686075e-01 -1.000000e+00 -3.657255e+00
    endloop
  endfacet
  facet normal 5.264322e-01 -0.000000e+00 8.502171e-01
    outer loop
      vertex   6.686075e-01 -1.000000e+00 -3.657255e+00
      vertex   9.039520e-01 0.000000e+00 -3.802974e+00
      vertex   6.686075e-01 0.000000e+00 -3.657255e+00
    endloop
  endfacet
  facet normal 3.612417e-01 -0.000000e+00 9.324722e-01
    outer loop
      vertex   6.686075e-01 -1.000000e+00 -3.657255e+00
      vertex   6.686075e-01 0.000000e+00 -3.657255e+00
      vertex   4.104945e-01 -1.000000e+00 -3.557262e+00
    endloop
  endfacet
  facet normal 3.612417e-01 -0.000000e+00 9.324722e-01
    outer loop
      vertex   4.104945e-01 -1.000000e+00 -3.557262e+00
      vertex   6.686075e-01 0.000000e+00 -3.657255e+00
      vertex   4.104945e-01 0.000000e+00 -3.557262e+00
    endloop
  endfacet
  facet normal 1.837495e-01 -0.000000e+00 9.829731e-01
    outer loop
      vertex   4.104945e-01 -1.000000e+00 -3.557262e+00
      vertex   4.104945e-01 0.000000e+00 -3.557262e+00
      vertex   1.384025e-01 -1.000000e+00 -3.506399e+00
    endloop
  endfacet
  facet normal 1.837495e-01 -0.000000e+00 9.829731e-01
    outer loop
      vertex   1.384025e-01 -1.000000e+00 -3.506399e+00
      vertex   4.104945e-01 0.000000e+00 -3.557262e+00
      vertex   1.384025e-01 0.000000e+00 -3.506399e+00
    endloop
  endfacet
  facet normal 0.000000e+00 -0.000000e+00 1.000000e+00
    outer loop
      vertex   1.384025e-01 -1.000000e+00 -3.506399e+00
      vertex   1.384025e-01 0.000000e+00 -3.506399e+00
      vertex   -1.384025e-01 -1.000000e+00 -3.506399e+00
    endloop
  endfacet
  facet normal 0.000000e+00 0.000000e+00 1.000000e+00
    outer loop
      vertex   -1.384025e-01 -1.000000e+00 -3.506399e+00
      vertex   1.384025e-01 0.000000e+00 -3.506399e+00
      vertex   -1.384025e-01 0.000000e+00 -3.506399e+00
    endloop
  endfacet
  facet normal -1.837495e-01 0.000000e+00 9.829731e-01
    outer loop
      vertex   -1.384025e-01 -1.000000e+00 -3.506399e+00
      vertex   -1.384025e-01 0.000000e+00 -3.506399e+00
      vertex   -4.104945e-01 -1.000000e+00 -3.557262e+00
    endloop
  endfacet
  facet normal -1.837495e-01 0.000000e+00 9.829731e-01
    outer loop
      vertex   -4.104945e-01 -1.000000e+00 -3.557262e+00
      vertex   -1.384025e-01 0.000000e+00 -3.506399e+00
      vertex   -4.104945e-01 0.000000e+00 -3.557262e+00
    endloop
  endfacet
  facet normal -3.612417e-01 0.000000e+00 9.324722e-01
    outer loop
      vertex   -4.104945e-01 -1.000000e+00 -3.557262e+00
      vertex   -4.104945e-01 0.000000e+00 -3.557262e+00
      vertex   -6.686075e-01 -1.000000e+00 -3.657255e+00
    endloop
  endfacet
  facet normal -3.612417e-01 0.000000e+00 9.324722e-01
    outer loop
      vertex   -6.686075e-01 -1.000000e+00 -3.657255e+00
      vertex   -4.104945e-01 0.000000e+00 -3.557262e+00
      vertex   -6.686075e-01 0.000000e+00 -3.657255e+00
    endloop
  endfacet
  facet normal -5.264322e-01 0.000000e+00 8.502171e-01
    outer loop
      vertex   -6.686075e-01 -1.000000e+00 -3.657255e+00
      vertex   -6.686075e-01 0.000000e+00 -3.657255e+00
      vertex   -9.039520e-01 -1.000000e+00 -3.802974e+00
    endloop
  endfacet
  facet normal -5.264322e-01 0.000000e+00 8.502171e-01
    outer loop
      vertex   -9.039520e-01 -1.000000e+00 -3.802974e+00
      vertex   -6.686075e-01 0.000000e+00 -3.657255e+00
      vertex   -9.039520e-01 0.000000e+00 -3.802974e+00
    endloop
  endfacet
  facet normal -6.736956e-01 0.000000e+00 7.390089e-01
    outer loop
      vertex   -9.039520e-01 -1.000000e+00 -3.802974e+00
      vertex   -9.039520e-01 0.000000e+00 -3.802974e+00
      vertex   -1.108513e+00 -1.000000e+00 -3.989457e+00
    endloop
  endfacet
  facet normal -6.736956e-01 0.000000e+00 7.390089e-01
    outer loop
      vertex   -1.108513e+00 -1.000000e+00 -3.989457e+00
      vertex   -9.039520e-01 0.000000e+00 -3.802974e+00
      vertex   -1.108513e+00 0.000000e+00 -3.989457e+00
    endloop
  endfacet
  facet normal -7.980172e-01 0.000000e+00 6.026346e-01
    outer loop
      vertex   -1.108513e+00 -1.000000e+00 -3.989457e+00
      vertex   -1.108513e+00 0.000000e+00 -3.989457e+00
      vertex   -1.275326e+00 -1.000000e+00 -4.210352e+00
    endloop
  endfacet
  facet normal -7.980172e-01 0.000000e+00 6.026346e-01
    outer loop
      vertex   -1.275326e+00 -1.000000e+00 -4.210352e+00
      vertex   -1.108513e+00 0.000000e+00 -3.989457e+00
      vertex   -1.275326e+00 0.000000e+00 -4.210352e+00
    endloop
  endfacet
  facet normal -8.951633e-01 0.000000e+00 4.457384e-01
    outer loop
      vertex   -1.275326e+00 -1.000000e+00 -4.210352e+00
      vertex   -1.275326e+00 0.000000e+00 -4.210352e+00
      vertex   -1.398708e+00 -1.000000e+00 -4.458138e+00
    endloop
  endfacet
  facet normal -8.951633e-01 0.000000e+00 4.457384e-01
    outer loop
      vertex   -1.398708e+00 -1.000000e+00 -4.458138e+00
      vertex   -1.275326e+00 0.000000e+00 -4.210352e+00
      vertex   -1.398708e+00 0.000000e+00 -4.458138e+00
    endloop
  endfacet
  facet normal -9.618256e-01 0.000000e+00 2.736630e-01
    outer loop
      vertex   -1.398708e+00 -1.000000e+00 -4.458138e+00
      vertex   -1.398708e+00 0.000000e+00 -4.458138e+00
      vertex   -1.474460e+00 -1.000000e+00 -4.724376e+00
    endloop
  endfacet
  facet normal -9.618256e-01 0.000000e+00 2.736630e-01
    outer loop
      vertex   -1.474460e+00 -1.000000e+00 -4.724376e+00
      vertex   -1.398708e+00 0.000000e+00 -4.458138e+00
      vertex   -1.474460e+00 0.000000e+00 -4.724376e+00
    endloop
  endfacet
  facet normal -8.765214e-01 -0.000000e+00 -4.813629e-01
    outer loop
      vertex   0.000000e+00 0.000000e+00 1.500000e+01
      vertex   1.265775e+01 0.000000e+00 -8.048693e+00
      vertex   0.000000e+00 -1.000000e+00 1.500000e+01
    endloop
  endfacet
  facet normal -8.765214e-01 0.000000e+00 -4.813629e-01
    outer loop
      vertex   0.000000e+00 -1.000000e+00 1.500000e+01
      vertex   1.265775e+01 0.000000e+00 -8.048693e+00
      vertex   1.265775e+01 -1.000000e+00 -8.048693e+00
    endloop
  endfacet
  facet normal 0.000000e+00 0.000000e+00 1.000000e+00
    outer loop
      vertex   1.265775e+01 0.000000e+00 -8.048693e+00
      vertex   -1.265775e+01 0.000000e+00 -8.048693e+00
      vertex   1.265775e+01 -1.000000e+00 -8.048693e+00
    endloop
  endfacet
  facet normal 0.000000e+00 0.000000e+00 1.000000e+00
    outer loop
      vertex   1.265775e+01 -1.000000e+00 -8.048693e+00
      vertex   -1.265775e+01 0.000000e+00 -8.048693e+00
      vertex   -1.265775e+01 -1.000000e+00 -8.048693e+00
    endloop
  endfacet
  facet normal 8.765214e-01 0.000000e+00 -4.813629e-01
    outer loop
      vertex   -1.265775e+01 0.000000e+00 -8.048693e+00
      vertex   0.000000e+00 0.000000e+00 1.500000e+01
      vertex   -1.265775e+01 -1.000000e+00 -8.048693e+00
    endloop
  endfacet
  facet normal 8.765214e-01 0.000000e+00 -4.813629e-01
    outer loop
      vertex   -1.265775e+01 -1.000000e+00 -8.048693e+00
      vertex   0.000000e+00 0.000000e+00 1.500000e+01
      vertex   0.000000e+00 -1.000000e+00 1.500000e+01
    endloop
  endfacet
  facet normal 0.000000e+00 1.000000e+00 0.000000e+00
    outer loop
      vertex   -1.474460e+00 -1.000000e+00 -4.724376e+00
      vertex   -1.500000e+00 -1.000000e+00 -5.000000e+00
      vertex   -1.265775e+01 -1.000000e+00 -8.048693e+00
    endloop
  endfacet
  facet normal 0.000000e+00 1.000000e+00 0.000000e+00
    outer loop
      vertex   -1.265775e+01 -1.000000e+00 -8.048693e+00
      vertex   -1.500000e+00 -1.000000e+00 -5.000000e+00
      vertex   -1.474460e+00 -1.000000e+00 -5.275624e+00
    endloop
  endfacet
  facet normal 0.000000e+00 1.000000e+00 0.000000e+00
    outer loop
      vertex   -1.265775e+01 -1.000000e+00 -8.048693e+00
      vertex   -1.474460e+00 -1.000000e+00 -5.275624e+00
      vertex   -1.398708e+00 -1.000000e+00 -5.541863e+00
    endloop
  endfacet
  facet normal 0.000000e+00 1.000000e+00 0.000000e+00
    outer loop
      vertex   -1.398708e+00 -1.000000e+00 -5.541863e+00
      vertex   -1.275326e+00 -1.000000e+00 -5.789648e+00
      vertex   -1.265775e+01 -1.000000e+00 -8.048693e+00
    endloop
  endfacet
  facet normal 0.000000e+00 1.000000e+00 0.000000e+00
    outer loop
      vertex   -1.265775e+01 -1.000000e+00 -8.048693e+00
      vertex   -1.275326e+00 -1.000000e+00 -5.789648e+00
      vertex   -1.108513e+00 -1.000000e+00 -6.010544e+00
    endloop
  endfacet
  facet normal 0.000000e+00 1.000000e+00 0.000000e+00
    outer loop
      vertex   -1.265775e+01 -1.000000e+00 -8.048693e+00
      vertex   -1.108513e+00 -1.000000e+00 -6.010544e+00
      vertex   -9.039520e-01 -1.000000e+00 -6.197026e+00
    endloop
  endfacet
  facet normal 0.000000e+00 1.000000e+00 0.000000e+00
    outer loop
      vertex   -9.039520e-01 -1.000000e+00 -6.197026e+00
      vertex   -6.686075e-01 -1.000000e+00 -6.342745e+00
      vertex   -1.265775e+01 -1.000000e+00 -8.048693e+00
    endloop
  endfacet
  facet normal 0.000000e+00 1.000000e+00 0.000000e+00
    outer loop
      vertex   -1.265775e+01 -1.000000e+00 -8.048693e+00
      vertex   -6.686075e-01 -1.000000e+00 -6.342745e+00
      vertex   -4.104945e-01 -1.000000e+00 -6.442739e+00
    endloop
  endfacet
  facet normal 0.000000e+00 1.000000e+00 0.000000e+00
    outer loop
      vertex   -1.265775e+01 -1.000000e+00 -8.048693e+00
      vertex   -4.104945e-01 -1.000000e+00 -6.442739e+00
      vertex   -1.384025e-01 -1.000000e+00 -6.493601e+00
    endloop
  endfacet
  facet normal -0.000000e+00 1.000000e+00 0.000000e+00
    outer loop
      vertex   -1.384025e-01 -1.000000e+00 -6.493601e+00
      vertex   1.384025e-01 -1.000000e+00 -6.493601e+00
      vertex   -1.265775e+01 -1.000000e+00 -8.048693e+00
    endloop
  endfacet
  facet normal 0.000000e+00 1.000000e+00 0.000000e+00
    outer loop
      vertex   -1.265775e+01 -1.000000e+00 -8.048693e+00
      vertex   1.384025e-01 -1.000000e+00 -6.493601e+00
      vertex   1.265775e+01 -1.000000e+00 -8.048693e+00
    endloop
  endfacet
  facet normal 0.000000e+00 1.000000e+00 0.000000e+00
    outer loop
      vertex   1.265775e+01 -1.000000e+00 -8.048693e+00
      vertex   1.384025e-01 -1.000000e+00 -6.493601e+00
      vertex   4.104945e-01 -1.000000e+00 -6.442739e+00
    endloop
  endfacet
  facet normal 0.000000e+00 1.000000e+00 0.000000e+00
    outer loop
      vertex   1.265775e+01 -1.000000e+00 -8.048693e+00
      vertex   4.104945e-01 -1.000000e+00 -6.442739e+00
      vertex   6.686075e-01 -1.000000e+00 -6.342745e+00
    endloop
  endfacet
  facet normal -0.000000e+00 1.000000e+00 0.000000e+00
    outer loop
      vertex   6.686075e-01 -1.000000e+00 -6.342745e+00
      vertex   9.039520e-01 -1.000000e+00 -6.197026e+00
      vertex   1.265775e+01 -1.000000e+00 -8.048693e+00
    endloop
  endfacet
  facet normal 0.000000e+00 1.000000e+00 0.000000e+00
    outer loop
      vertex   1.265775e+01 -1.000000e+00 -8.048693e+00
      vertex   9.039520e-01 -1.000000e+00 -6.197026e+00
      vertex   1.108513e+00 -1.000000e+00 -6.010544e+00
    endloop
  endfacet
  facet normal 0.000000e+00 1.000000e+00 0.000000e+00
    outer loop
      vertex   1.265775e+01 -1.000000e+00 -8.048693e+00
      vertex   1.108513e+00 -1.000000e+00 -6.010544e+00
      vertex   1.275326e+00 -1.000000e+00 -5.789648e+00
    endloop
  endfacet
  facet normal -0.000000e+00 1.000000e+00 0.000000e+00
    outer loop
      vertex   1.275326e+00 -1.000000e+00 -5.789648e+00
      vertex   1.398708e+00 -1.000000e+00 -5.541863e+00
      vertex   1.265775e+01 -1.000000e+00 -8.048693e+00
    endloop
  endfacet
  facet normal 0.000000e+00 1.000000e+00 0.000000e+00
    outer loop
      vertex   1.265775e+01 -1.000000e+00 -8.048693e+00
      vertex   1.398708e+00 -1.000000e+00 -5.541863e+00
      vertex   1.474460e+00 -1.000000e+00 -5.275624e+00
    endloop
  endfacet
  facet normal 0.000000e+00 1.000000e+00 0.000000e+00
    outer loop
      vertex   1.265775e+01 -1.000000e+00 -8.048693e+00
      vertex   1.474460e+00 -1.000000e+00 -5.275624e+00
      vertex   1.500000e+00 -1.000000e+00 -5.000000e+00
    endloop
  endfacet
  facet normal -0.000000e+00 1.000000e+00 -0.000000e+00
    outer loop
      vertex   1.500000e+00 -1.000000e+00 -5.000000e+00
      vertex   1.474460e+00 -1.000000e+00 -4.724376e+00
      vertex   1.265775e+01 -1.000000e+00 -8.048693e+00
    endloop
  endfacet
  facet normal 0.000000e+00 1.000000e+00 0.000000e+00
    outer loop
      vertex   1.265775e+01 -1.000000e+00 -8.048693e+00
      vertex   1.474460e+00 -1.000000e+00 -4.724376e+00
      vertex   1.398708e+00 -1.000000e+00 -4.458138e+00
    endloop
  endfacet
  facet normal 0.000000e+00 1.000000e+00 0.000000e+00
    outer loop
      vertex   1.265775e+01 -1.000000e+00 -8.048693e+00
      vertex   1.398708e+00 -1.000000e+00 -4.458138e+00
      vertex   1.000000e+00 -1.000000e+00 -2.000000e+00
    endloop
  endfacet
  facet normal 0.000000e+00 1.000000e+00 0.000000e+00
    outer loop
      vertex   1.000000e+00 -1.000000e+00 -2.000000e+00
      vertex   1.398708e+00 -1.000000e+00 -4.458138e+00
      vertex   1.275326e+00 -1.000000e+00 -4.210352e+00
    endloop
  endfacet
  facet normal 0.000000e+00 1.000000e+00 0.000000e+00
    outer loop
      vertex   1.000000e+00 -1.000000e+00 -2.000000e+00
      vertex   1.275326e+00 -1.000000e+00 -4.210352e+00
      vertex   1.108513e+00 -1.000000e+00 -3.989457e+00
    endloop
  endfacet
  facet normal 0.000000e+00 1.000000e+00 0.000000e+00
    outer loop
      vertex   1.108513e+00 -1.000000e+00 -3.989457e+00
      vertex   9.039520e-01 -1.000000e+00 -3.802974e+00
      vertex   1.000000e+00 -1.000000e+00 -2.000000e+00
    endloop
  endfacet
  facet normal 0.000000e+00 1.000000e+00 0.000000e+00
    outer loop
      vertex   1.000000e+00 -1.000000e+00 -2.000000e+00
      vertex   9.039520e-01 -1.000000e+00 -3.802974e+00
      vertex   6.686075e-01 -1.000000e+00 -3.657255e+00
    endloop
  endfacet
  facet normal 0.000000e+00 1.000000e+00 0.000000e+00
    outer loop
      vertex   1.000000e+00 -1.000000e+00 -2.000000e+00
      vertex   6.686075e-01 -1.000000e+00 -3.657255e+00
      vertex   4.104945e-01 -1.000000e+00 -3.557262e+00
    endloop
  endfacet
  facet normal 0.000000e+00 1.000000e+00 -0.000000e+00
    outer loop
      vertex   4.104945e-01 -1.000000e+00 -3.557262e+00
      vertex   1.384025e-01 -1.000000e+00 -3.506399e+00
      vertex   1.000000e+00 -1.000000e+00 -2.000000e+00
    endloop
  endfacet
  facet normal 0.000000e+00 1.000000e+00 0.000000e+00
    outer loop
      vertex   1.000000e+00 -1.000000e+00 -2.000000e+00
      vertex   1.384025e-01 -1.000000e+00 -3.506399e+00
      vertex   -1.384025e-01 -1.000000e+00 -3.506399e+00
    endloop
  endfacet
  facet normal 0.000000e+00 1.000000e+00 0.000000e+00
    outer loop
      vertex   1.000000e+00 -1.000000e+00 -2.000000e+00
      vertex   -1.384025e-01 -1.000000e+00 -3.506399e+00
      vertex   -1.000000e+00 -1.000000e+00 -2.000000e+00
    endloop
  endfacet
  facet normal 0.000000e+00 1.000000e+00 0.000000e+00
    outer loop
      vertex   -1.000000e+00 -1.000000e+00 -2.000000e+00
      vertex   -1.384025e-01 -1.000000e+00 -3.506399e+00
      vertex   -4.104945e-01 -1.000000e+00 -3.557262e+00
    endloop
  endfacet
  facet normal 0.000000e+00 1.000000e+00 0.000000e+00
    outer loop
      vertex   -1.000000e+00 -1.000000e+00 -2.000000e+00
      vertex   -4.104945e-01 -1.000000e+00 -3.557262e+00
      vertex   -6.686075e-01 -1.000000e+00 -3.657255e+00
    endloop
  endfacet
  facet normal 0.000000e+00 1.000000e+00 0.000000e+00
    outer loop
      vertex   -6.686075e-01 -1.000000e+00 -3.657255e+00
      vertex   -9.039520e-01 -1.000000e+00 -3.802974e+00
      vertex   -1.000000e+00 -1.000000e+00 -2.000000e+00
    endloop
  endfacet
  facet normal 0.000000e+00 1.000000e+00 0.000000e+00
    outer loop
      vertex   -1.000000e+00 -1.000000e+00 -2.000000e+00
      vertex   -9.039520e-01 -1.000000e+00 -3.802974e+00
      vertex   -1.108513e+00 -1.000000e+00 -3.989457e+00
    endloop
  endfacet
  facet normal 0.000000e+00 1.000000e+00 0.000000e+00
    outer loop
      vertex   -1.000000e+00 -1.000000e+00 -2.000000e+00
      vertex   -1.108513e+00 -1.000000e+00 -3.989457e+00
      vertex   -1.275326e+00 -1.000000e+00 -4.210352e+00
    endloop
  endfacet
  facet normal 0.000000e+00 1.000000e+00 -0.000000e+00
    outer loop
      vertex   -1.275326e+00 -1.000000e+00 -4.210352e+00
      vertex   -1.398708e+00 -1.000000e+00 -4.458138e+00
      vertex   -1.000000e+00 -1.000000e+00 -2.000000e+00
    endloop
  endfacet
  facet normal 0.000000e+00 1.000000e+00 0.000000e+00
    outer loop
      vertex   -1.000000e+00 -1.000000e+00 -2.000000e+00
      vertex   -1.398708e+00 -1.000000e+00 -4.458138e+00
      vertex   -1.265775e+01 -1.000000e+00 -8.048693e+00
    endloop
  endfacet
  facet normal 0.000000e+00 1.000000e+00 0.000000e+00
    outer loop
      vertex   -1.000000e+00 -1.000000e+00 -2.000000e+00
      vertex   -1.265775e+01 -1.000000e+00 -8.048693e+00
      vertex   -2.000000e+00 -1.000000e+00 9.018704e+00
    endloop
  endfacet
  facet normal 0.000000e+00 1.000000e+00 -0.000000e+00
    outer loop
      vertex   -2.000000e+00 -1.000000e+00 9.018704e+00
      vertex   -1.265775e+01 -1.000000e+00 -8.048693e+00
      vertex   0.000000e+00 -1.000000e+00 1.500000e+01
    endloop
  endfacet
  facet normal 0.000000e+00 1.000000e+00 0.000000e+00
    outer loop
      vertex   -2.000000e+00 -1.000000e+00 9.018704e+00
      vertex   0.000000e+00 -1.000000e+00 1.500000e+01
      vertex   2.000000e+00 -1.000000e+00 9.018704e+00
    endloop
  endfacet
  facet normal -0.000000e+00 1.000000e+00 -0.000000e+00
    outer loop
      vertex   2.000000e+00 -1.000000e+00 9.018704e+00
      vertex   0.000000e+00 -1.000000e+00 1.500000e+01
      vertex   1.265775e+01 -1.000000e+00 -8.048693e+00
    endloop
  endfacet
  facet normal 0.000000e+00 1.000000e+00 0.000000e+00
    outer loop
      vertex   2.000000e+00 -1.000000e+00 9.018704e+00
      vertex   1.265775e+01 -1.000000e+00 -8.048693e+00
      vertex   1.000000e+00 -1.000000e+00 -2.000000e+00
    endloop
  endfacet
  facet normal 0.000000e+00 1.000000e+00 0.000000e+00
    outer loop
      vertex   -1.398708e+00 -1.000000e+00 -4.458138e+00
      vertex   -1.474460e+00 -1.000000e+00 -4.724376e+00
      vertex   -1.265775e+01 -1.000000e+00 -8.048693e+00
    endloop
  endfacet
  facet normal 0.000000e+00 1.000000e+00 0.000000e+00
    outer loop
      vertex   0.000000e+00 0.000000e+00 1.500000e+01
      vertex   1.519282e+01 0.000000e+00 -9.548693e+00
      vertex   1.265775e+01 0.000000e+00 -8.048693e+00
    endloop
  endfacet
  facet normal 0.000000e+00 1.000000e+00 0.000000e+00
    outer loop
      vertex   1.265775e+01 0.000000e+00 -8.048693e+00
      vertex   1.519282e+01 0.000000e+00 -9.548693e+00
      vertex   -1.519282e+01 0.000000e+00 -9.548693e+00
    endloop
  endfacet
  facet normal 0.000000e+00 1.000000e+00 0.000000e+00
    outer loop
      vertex   1.265775e+01 0.000000e+00 -8.048693e+00
      vertex   -1.519282e+01 0.000000e+00 -9.548693e+00
      vertex   -1.265775e+01 0.000000e+00 -8.048693e+00
    endloop
  endfacet
  facet normal 0.000000e+00 1.000000e+00 -0.000000e+00
    outer loop
      vertex   -1.265775e+01 0.000000e+00 -8.048693e+00
      vertex   -1.519282e+01 0.000000e+00 -9.548693e+00
      vertex   0.000000e+00 0.000000e+00 1.500000e+01
    endloop
  endfacet
  facet normal 0.000000e+00 1.000000e+00 -0.000000e+00
    outer loop
      vertex   0.000000e+00 0.000000e+00 1.500000e+01
      vertex   -1.519282e+01 0.000000e+00 -9.548693e+00
      vertex   0.000000e+00 0.000000e+00 1.811615e+01
    endloop
  endfacet
  facet normal -0.000000e+00 1.000000e+00 0.000000e+00
    outer loop
      vertex   0.000000e+00 0.000000e+00 1.500000e+01
      vertex   0.000000e+00 0.000000e+00 1.811615e+01
      vertex   1.519282e+01 0.000000e+00 -9.548693e+00
    endloop
  endfacet
  facet normal -0.000000e+00 1.000000e+00 0.000000e+00
    outer loop
      vertex   -1.474460e+00 0.000000e+00 -4.724376e+00
      vertex   1.474460e+00 0.000000e+00 -4.724376e+00
      vertex   -1.500000e+00 0.000000e+00 -5.000000e+00
    endloop
  endfacet
  facet normal 0.000000e+00 1.000000e+00 0.000000e+00
    outer loop
      vertex   -1.500000e+00 0.000000e+00 -5.000000e+00
      vertex   1.474460e+00 0.000000e+00 -4.724376e+00
      vertex   1.500000e+00 0.000000e+00 -5.000000e+00
    endloop
  endfacet
  facet normal -0.000000e+00 1.000000e+00 0.000000e+00
    outer loop
      vertex   -1.500000e+00 0.000000e+00 -5.000000e+00
      vertex   1.500000e+00 0.000000e+00 -5.000000e+00
      vertex   -1.474460e+00 0.000000e+00 -5.275624e+00
    endloop
  endfacet
  facet normal 0.000000e+00 1.000000e+00 0.000000e+00
    outer loop
      vertex   -1.474460e+00 0.000000e+00 -5.275624e+00
      vertex   1.500000e+00 0.000000e+00 -5.000000e+00
      vertex   1.474460e+00 0.000000e+00 -5.275624e+00
    endloop
  endfacet
  facet normal -0.000000e+00 1.000000e+00 0.000000e+00
    outer loop
      vertex   -1.474460e+00 0.000000e+00 -5.275624e+00
      vertex   1.474460e+00 0.000000e+00 -5.275624e+00
      vertex   -1.398708e+00 0.000000e+00 -5.541863e+00
    endloop
  endfacet
  facet normal 0.000000e+00 1.000000e+00 0.000000e+00
    outer loop
      vertex   -1.398708e+00 0.000000e+00 -5.541863e+00
      vertex   1.474460e+00 0.000000e+00 -5.275624e+00
      vertex   1.398708e+00 0.000000e+00 -5.541863e+00
    endloop
  endfacet
  facet normal -0.000000e+00 1.000000e+00 0.000000e+00
    outer loop
      vertex   -1.398708e+00 0.000000e+00 -5.541863e+00
      vertex   1.398708e+00 0.000000e+00 -5.541863e+00
      vertex   -1.275326e+00 0.000000e+00 -5.789648e+00
    endloop
  endfacet
  facet normal 0.000000e+00 1.000000e+00 0.000000e+00
    outer loop
      vertex   -1.275326e+00 0.000000e+00 -5.789648e+00
      vertex   1.398708e+00 0.000000e+00 -5.541863e+00
      vertex   1.275326e+00 0.000000e+00 -5.789648e+00
    endloop
  endfacet
  facet normal -0.000000e+00 1.000000e+00 0.000000e+00
    outer loop
      vertex   -1.275326e+00 0.000000e+00 -5.789648e+00
      vertex   1.275326e+00 0.000000e+00 -5.789648e+00
      vertex   -1.108513e+00 0.000000e+00 -6.010544e+00
    endloop
  endfacet
  facet normal 0.000000e+00 1.000000e+00 0.000000e+00
    outer loop
      vertex   -1.108513e+00 0.000000e+00 -6.010544e+00
      vertex   1.275326e+00 0.000000e+00 -5.789648e+00
      vertex   1.108513e+00 0.000000e+00 -6.010544e+00
    endloop
  endfacet
  facet normal -0.000000e+00 1.000000e+00 0.000000e+00
    outer loop
      vertex   -1.108513e+00 0.000000e+00 -6.010544e+00
      vertex   1.108513e+00 0.000000e+00 -6.010544e+00
      vertex   -9.039520e-01 0.000000e+00 -6.197026e+00
    endloop
  endfacet
  facet normal 0.000000e+00 1.000000e+00 0.000000e+00
    outer loop
      vertex   -9.039520e-01 0.000000e+00 -6.197026e+00
      vertex   1.108513e+00 0.000000e+00 -6.010544e+00
      vertex   9.039520e-01 0.000000e+00 -6.197026e+00
    endloop
  endfacet
  facet normal -0.000000e+00 1.000000e+00 0.000000e+00
    outer loop
      vertex   -9.039520e-01 0.000000e+00 -6.197026e+00
      vertex   9.039520e-01 0.000000e+00 -6.197026e+00
      vertex   -6.686075e-01 0.000000e+00 -6.342745e+00
    endloop
  endfacet
  facet normal 0.000000e+00 1.000000e+00 0.000000e+00
    outer loop
      vertex   -6.686075e-01 0.000000e+00 -6.342745e+00
      vertex   9.039520e-01 0.000000e+00 -6.197026e+00
      vertex   6.686075e-01 0.000000e+00 -6.342745e+00
    endloop
  endfacet
  facet normal -0.000000e+00 1.000000e+00 0.000000e+00
    outer loop
      vertex   -6.686075e-01 0.000000e+00 -6.342745e+00
      vertex   6.686075e-01 0.000000e+00 -6.342745e+00
      vertex   -4.104945e-01 0.000000e+00 -6.442739e+00
    endloop
  endfacet
  facet normal 0.000000e+00 1.000000e+00 0.000000e+00
    outer loop
      vertex   -4.104945e-01 0.000000e+00 -6.442739e+00
      vertex   6.686075e-01 0.000000e+00 -6.342745e+00
      vertex   4.104945e-01 0.000000e+00 -6.442739e+00
    endloop
  endfacet
  facet normal -0.000000e+00 1.000000e+00 0.000000e+00
    outer loop
      vertex   -4.104945e-01 0.000000e+00 -6.442739e+00
      vertex   4.104945e-01 0.000000e+00 -6.442739e+00
      vertex   -1.384025e-01 0.000000e+00 -6.493601e+00
    endloop
  endfacet
  facet normal 0.000000e+00 1.000000e+00 0.000000e+00
    outer loop
      vertex   -1.384025e-01 0.000000e+00 -6.493601e+00
      vertex   4.104945e-01 0.000000e+00 -6.442739e+00
      vertex   1.384025e-01 0.000000e+00 -6.493601e+00
    endloop
  endfacet
  facet normal 0.000000e+00 1.000000e+00 0.000000e+00
    outer loop
      vertex   1.474460e+00 0.000000e+00 -4.724376e+00
      vertex   -1.474460e+00 0.000000e+00 -4.724376e+00
      vertex   1.398708e+00 0.000000e+00 -4.458138e+00
    endloop
  endfacet
  facet normal 0.000000e+00 1.000000e+00 0.000000e+00
    outer loop
      vertex   1.398708e+00 0.000000e+00 -4.458138e+00
      vertex   -1.474460e+00 0.000000e+00 -4.724376e+00
      vertex   -1.398708e+00 0.000000e+00 -4.458138e+00
    endloop
  endfacet
  facet normal 0.000000e+00 1.000000e+00 0.000000e+00
    outer loop
      vertex   1.398708e+00 0.000000e+00 -4.458138e+00
      vertex   -1.398708e+00 0.000000e+00 -4.458138e+00
      vertex   1.275326e+00 0.000000e+00 -4.210352e+00
    endloop
  endfacet
  facet normal 0.000000e+00 1.000000e+00 0.000000e+00
    outer loop
      vertex   1.275326e+00 0.000000e+00 -4.210352e+00
      vertex   -1.398708e+00 0.000000e+00 -4.458138e+00
      vertex   -1.275326e+00 0.000000e+00 -4.210352e+00
    endloop
  endfacet
  facet normal 0.000000e+00 1.000000e+00 0.000000e+00
    outer loop
      vertex   1.275326e+00 0.000000e+00 -4.210352e+00
      vertex   -1.275326e+00 0.000000e+00 -4.210352e+00
      vertex   1.108513e+00 0.000000e+00 -3.989457e+00
    endloop
  endfacet
  facet normal 0.000000e+00 1.000000e+00 0.000000e+00
    outer loop
      vertex   1.108513e+00 0.000000e+00 -3.989457e+00
      vertex   -1.275326e+00 0.000000e+00 -4.210352e+00
      vertex   -1.108513e+00 0.000000e+00 -3.989457e+00
    endloop
  endfacet
  facet normal 0.000000e+00 1.000000e+00 0.000000e+00
    outer loop
      vertex   1.108513e+00 0.000000e+00 -3.989457e+00
      vertex   -1.108513e+00 0.000000e+00 -3.989457e+00
      vertex   9.039520e-01 0.000000e+00 -3.802974e+00
    endloop
  endfacet
  facet normal 0.000000e+00 1.000000e+00 0.000000e+00
    outer loop
      vertex   9.039520e-01 0.000000e+00 -3.802974e+00
      vertex   -1.108513e+00 0.000000e+00 -3.989457e+00
      vertex   -9.039520e-01 0.000000e+00 -3.802974e+00
    endloop
  endfacet
  facet normal 0.000000e+00 1.000000e+00 0.000000e+00
    outer loop
      vertex   9.039520e-01 0.000000e+00 -3.802974e+00
      vertex   -9.039520e-01 0.000000e+00 -3.802974e+00
      vertex   6.686075e-01 0.000000e+00 -3.657255e+00
    endloop
  endfacet
  facet normal 0.000000e+00 1.000000e+00 0.000000e+00
    outer loop
      vertex   6.686075e-01 0.000000e+00 -3.657255e+00
      vertex   -9.039520e-01 0.000000e+00 -3.802974e+00
      vertex   -6.686075e-01 0.000000e+00 -3.657255e+00
    endloop
  endfacet
  facet normal 0.000000e+00 1.000000e+00 0.000000e+00
    outer loop
      vertex   6.686075e-01 0.000000e+00 -3.657255e+00
      vertex   -6.686075e-01 0.000000e+00 -3.657255e+00
      vertex   4.104945e-01 0.000000e+00 -3.557262e+00
    endloop
  endfacet
  facet normal 0.000000e+00 1.000000e+00 0.000000e+00
    outer loop
      vertex   4.104945e-01 0.000000e+00 -3.557262e+00
      vertex   -6.686075e-01 0.000000e+00 -3.657255e+00
      vertex   -4.104945e-01 0.000000e+00 -3.557262e+00
    endloop
  endfacet
  facet normal 0.000000e+00 1.000000e+00 0.000000e+00
    outer loop
      vertex   4.104945e-01 0.000000e+00 -3.557262e+00
      vertex   -4.104945e-01 0.000000e+00 -3.557262e+00
      vertex   1.384025e-01 0.000000e+00 -3.506399e+00
    endloop
  endfacet
  facet normal 0.000000e+00 1.000000e+00 0.000000e+00
    outer loop
      vertex   1.384025e-01 0.000000e+00 -3.506399e+00
      vertex   -4.104945e-01 0.000000e+00 -3.557262e+00
      vertex   -1.384025e-01 0.000000e+00 -3.506399e+00
    endloop
  endfacet
  facet normal 8.765214e-01 0.000000e+00 4.813629e-01
    outer loop
      vertex   1.519282e+01 0.000000e+00 -9.548693e+00
      vertex   0.000000e+00 0.000000e+00 1.811615e+01
      vertex   1.519282e+01 -3.000000e+00 -9.548693e+00
    endloop
  endfacet
  facet normal 8.765214e-01 0.000000e+00 4.813629e-01
    outer loop
      vertex   1.519282e+01 -3.000000e+00 -9.548693e+00
      vertex   0.000000e+00 0.000000e+00 1.811615e+01
      vertex   0.000000e+00 -3.000000e+00 1.811615e+01
    endloop
  endfacet
  facet normal -5.846041e-17 -0.000000e+00 -1.000000e+00
    outer loop
      vertex   -1.519282e+01 0.000000e+00 -9.548693e+00
      vertex   1.519282e+01 0.000000e+00 -9.548693e+00
      vertex   -1.519282e+01 -3.000000e+00 -9.548693e+00
    endloop
  endfacet
  facet normal -5.846041e-17 0.000000e+00 -1.000000e+00
    outer loop
      vertex   -1.519282e+01 -3.000000e+00 -9.548693e+00
      vertex   1.519282e+01 0.000000e+00 -9.548693e+00
      vertex   1.519282e+01 -3.000000e+00 -9.548693e+00
    endloop
  endfacet
  facet normal -8.765214e-01 0.000000e+00 4.813629e-01
    outer loop
      vertex   0.000000e+00 0.000000e+00 1.811615e+01
      vertex   -1.519282e+01 0.000000e+00 -9.548693e+00
      vertex   0.000000e+00 -3.000000e+00 1.811615e+01
    endloop
  endfacet
  facet normal -8.765214e-01 0.000000e+00 4.813629e-01
    outer loop
      vertex   0.000000e+00 -3.000000e+00 1.811615e+01
      vertex   -1.519282e+01 0.000000e+00 -9.548693e+00
      vertex   -1.519282e+01 -3.000000e+00 -9.548693e+00
    endloop
  endfacet
  facet normal -0.000000e+00 1.000000e+00 0.000000e+00
    outer loop
      vertex   -2.000000e+00 0.000000e+00 9.018704e+00
      vertex   2.000000e+00 0.000000e+00 9.018704e+00
      vertex   -1.000000e+00 0.000000e+00 -2.000000e+00
    endloop
  endfacet
  facet normal 0.000000e+00 1.000000e+00 0.000000e+00
    outer loop
      vertex   -1.000000e+00 0.000000e+00 -2.000000e+00
      vertex   2.000000e+00 0.000000e+00 9.018704e+00
      vertex   1.000000e+00 0.000000e+00 -2.000000e+00
    endloop
  endfacet
  facet normal 0.000000e+00 -1.000000e+00 -0.000000e+00
    outer loop
      vertex   0.000000e+00 -3.000000e+00 1.811615e+01
      vertex   -1.519282e+01 -3.000000e+00 -9.548693e+00
      vertex   1.519282e+01 -3.000000e+00 -9.548693e+00
    endloop
  endfacet
endsolid
